<svg width="16" height="16" viewBox="0 0 16 16" fill="none" xmlns="http://www.w3.org/2000/svg">
<g clip-path="url(#clip0_39_37)">
<path d="M6.5 0C2.92188 0 0 2.92188 0 6.5C0 10.0781 2.92188 13 6.5 13C6.66797 13 6.83594 12.9922 7 12.9805V10.9727C6.83594 10.9922 6.66797 11 6.5 11C4.00391 11 2 8.99609 2 6.5C2 4.00391 4.00391 2 6.5 2C8.99609 2 11 4.00391 11 6.5C11 6.66797 10.9922 6.83594 10.9727 7H12.9805C12.9922 6.83594 13 6.66797 13 6.5C13 2.92188 10.0781 0 6.5 0ZM6.5 3C6.22266 3 6 3.22266 6 3.5V6H4.5C4.22266 6 4 6.22266 4 6.5C4 6.77734 4.22266 7 4.5 7H6.5C6.77734 7 7 6.77734 7 6.5V3.5C7 3.22266 6.77734 3 6.5 3ZM11 8V11H8V13H11V16H13V13H16V11H13V8H11Z" fill="white"/>
</g>
<defs>
<clipPath id="clip0_39_37">
<rect width="16" height="16" fill="white"/>
</clipPath>
</defs>
</svg>
