<svg width="27" height="27" viewBox="0 0 27 27" fill="none" xmlns="http://www.w3.org/2000/svg">
<path d="M13.4999 13.23C13.9472 13.23 14.3099 12.8673 14.3099 12.42C14.3099 11.9727 13.9472 11.61 13.4999 11.61V13.23ZM5.93988 11.61C5.49254 11.61 5.12988 11.9727 5.12988 12.42C5.12988 12.8673 5.49254 13.23 5.93988 13.23V11.61ZM13.4999 11.61C13.0525 11.61 12.6899 11.9727 12.6899 12.42C12.6899 12.8673 13.0525 13.23 13.4999 13.23V11.61ZM21.0599 13.23C21.5072 13.23 21.8699 12.8673 21.8699 12.42C21.8699 11.9727 21.5072 11.61 21.0599 11.61V13.23ZM12.6899 12.42C12.6899 12.8673 13.0525 13.23 13.4999 13.23C13.9472 13.23 14.3099 12.8673 14.3099 12.42H12.6899ZM14.3099 5.94C14.3099 5.49266 13.9472 5.13 13.4999 5.13C13.0525 5.13 12.6899 5.49266 12.6899 5.94H14.3099ZM6.74988 12.42C6.74988 11.9727 6.38723 11.61 5.93988 11.61C5.49254 11.61 5.12988 11.9727 5.12988 12.42H6.74988ZM21.8699 12.42C21.8699 11.9727 21.5072 11.61 21.0599 11.61C20.6125 11.61 20.2499 11.9727 20.2499 12.42H21.8699ZM5.12988 12.42C5.12988 12.8673 5.49254 13.23 5.93988 13.23C6.38723 13.23 6.74988 12.8673 6.74988 12.42H5.12988ZM13.4999 6.75001C13.9472 6.75001 14.3099 6.38735 14.3099 5.94C14.3099 5.49266 13.9472 5.13 13.4999 5.13V6.75001ZM20.2499 12.42C20.2499 12.8673 20.6125 13.23 21.0599 13.23C21.5072 13.23 21.8699 12.8673 21.8699 12.42H20.2499ZM13.4999 5.13C13.0525 5.13 12.6899 5.49266 12.6899 5.94C12.6899 6.38735 13.0525 6.75001 13.4999 6.75001V5.13ZM13.4999 11.61H5.93988V13.23H13.4999V11.61ZM13.4999 13.23H21.0599V11.61H13.4999V13.23ZM14.3099 12.42V5.94H12.6899V12.42H14.3099ZM5.12988 12.42V16.74H6.74988V12.42H5.12988ZM5.12988 16.74C5.12988 19.5733 7.42667 21.87 10.2599 21.87V20.25C8.32136 20.25 6.74988 18.6785 6.74988 16.74H5.12988ZM10.2599 21.87H16.7399V20.25H10.2599V21.87ZM16.7399 21.87C19.5732 21.87 21.8699 19.5733 21.8699 16.74H20.2499C20.2499 18.6785 18.6784 20.25 16.7399 20.25V21.87ZM21.8699 16.74V12.42H20.2499V16.74H21.8699ZM6.74988 12.42V10.26H5.12988V12.42H6.74988ZM6.74988 10.26C6.74988 8.32148 8.32136 6.75001 10.2599 6.75001V5.13C7.42667 5.13 5.12988 7.42679 5.12988 10.26H6.74988ZM10.2599 6.75001H13.4999V5.13H10.2599V6.75001ZM21.8699 12.42V10.26H20.2499V12.42H21.8699ZM21.8699 10.26C21.8699 7.42679 19.5732 5.13 16.7399 5.13V6.75001C18.6784 6.75001 20.2499 8.32148 20.2499 10.26H21.8699ZM16.7399 5.13H13.4999V6.75001H16.7399V5.13Z" fill="white"/>
</svg>
