<svg width="18" height="18" viewBox="0 0 18 18" fill="none" xmlns="http://www.w3.org/2000/svg">
<g clip-path="url(#clip0_39_40)">
<path d="M13.5 10.5H14.1C14.4152 10.5 14.7273 10.438 15.0184 10.3174C15.3096 10.1968 15.5742 10.0199 15.797 9.79703C16.0199 9.5742 16.1968 9.30968 16.3174 9.01853C16.438 8.7273 16.5 8.41523 16.5 8.1V3.90005C16.5 3.58488 16.438 3.27278 16.3174 2.9816C16.1968 2.69042 16.0199 2.4258 15.797 2.20294C15.5742 1.98008 15.3096 1.80335 15.0184 1.68274C14.7273 1.56213 14.4152 1.5 14.1 1.5H6.90001C6.58484 1.5 6.27278 1.56213 5.9816 1.68274C5.69042 1.80335 5.42585 1.98008 5.20299 2.20294C4.98013 2.4258 4.80331 2.69042 4.68269 2.9816C4.56208 3.27278 4.5 3.58488 4.5 3.90005V5.70008" stroke="white" stroke-width="1.5" stroke-linecap="round" stroke-linejoin="round"/>
<path d="M5.10004 14.7001L6.4725 16.0801C6.75069 16.3416 7.11816 16.4872 7.5 16.4872C7.88183 16.4872 8.24933 16.3416 8.52758 16.0801L9.9 14.7001H11.1C11.7365 14.7001 12.347 14.4472 12.797 13.9971C13.2472 13.547 13.5 12.9365 13.5 12.3V8.1C13.5 7.46352 13.2472 6.8531 12.797 6.40301C12.347 5.95293 11.7365 5.70007 11.1 5.70007H3.90001C3.26349 5.70007 2.65307 5.95293 2.20299 6.40301C1.7529 6.8531 1.5 7.46352 1.5 8.1V12.3C1.5 12.9365 1.7529 13.547 2.20299 13.9971C2.65307 14.4472 3.26349 14.7001 3.90001 14.7001H5.10004Z" stroke="white" stroke-width="1.5" stroke-linecap="round" stroke-linejoin="round"/>
</g>
<defs>
<clipPath id="clip0_39_40">
<rect width="18" height="18" fill="white"/>
</clipPath>
</defs>
</svg>
