<svg width="16" height="16" viewBox="0 0 16 16" fill="none" xmlns="http://www.w3.org/2000/svg">
<g clip-path="url(#clip0_39_33)">
<path d="M13.9998 15.68H1.99982C1.90032 15.68 1.81982 15.5995 1.81982 15.5V0.500007C1.81982 0.400507 1.90032 0.320007 1.99982 0.320007H10.9998C11.0478 0.320007 11.0938 0.339007 11.1273 0.372507L14.1273 3.37251C14.1608 3.40651 14.1798 3.45201 14.1798 3.50001V15.5C14.1798 15.5995 14.0993 15.68 13.9998 15.68ZM2.17982 15.32H13.8198V3.68001H10.9998C10.9003 3.68001 10.8198 3.59951 10.8198 3.50001V0.680007H2.17982V15.32ZM11.1798 3.32001H13.5653L11.1798 0.934507V3.32001ZM9.99982 13.68H3.99982V13.32H9.99982V13.68ZM11.9998 11.68H3.99982V11.32H11.9998V11.68ZM11.9998 9.68001H3.99982V9.32001H11.9998V9.68001ZM8.12682 4.62701L7.87232 4.37251L6.49982 5.74551L5.37382 4.61951C5.84182 4.46251 6.17982 4.02001 6.17982 3.50001C6.17982 2.84951 5.65032 2.32001 4.99982 2.32001H3.81982V6.50001H4.17982V4.68001H4.92532L6.24532 6.00001L4.87232 7.37301L5.12682 7.62751L6.49982 6.25451L7.87282 7.62751L8.12732 7.37301L6.75432 6.00001L8.12682 4.62701ZM4.17982 4.32001V2.68001H4.99982C5.45182 2.68001 5.81982 3.04801 5.81982 3.50001C5.81982 3.95201 5.45182 4.32001 4.99982 4.32001H4.17982Z" fill="white" stroke="white"/>
</g>
<defs>
<clipPath id="clip0_39_33">
<rect width="16" height="16" fill="white"/>
</clipPath>
</defs>
</svg>
