<svg width="24" height="24" viewBox="0 0 24 24" fill="none" xmlns="http://www.w3.org/2000/svg">
<g clip-path="url(#clip0_219_5)">
<path fill-rule="evenodd" clip-rule="evenodd" d="M10.2323 1.05705C9.84182 0.66653 9.20866 0.66653 8.81814 1.05705L1.03996 8.83523C0.64944 9.22575 0.64944 9.85892 1.03996 10.2494L1.7471 10.9565L13.7679 22.9773C14.1584 23.3678 14.7916 23.3678 15.1821 22.9773L15.8812 22.2782L15.8892 22.2702L15.8973 22.2621L22.2457 15.9137L22.2532 15.9063L22.2606 15.8988L22.9602 15.1991C23.3508 14.8086 23.3508 14.1755 22.9602 13.7849L22.2604 13.0851L22.2532 13.0778L22.2459 13.0706L10.9455 1.77021C10.9435 1.76819 10.9415 1.76617 10.9395 1.76416C10.9374 1.76215 10.9354 1.76014 10.9334 1.75814L10.2323 1.05705ZM8.11104 4.59258L4.57551 8.12811C5.35656 8.90916 5.35658 10.1755 4.57553 10.9565L8.81816 15.1991L13.0608 19.4418C13.8418 18.6607 15.1082 18.6607 15.8892 19.4418L19.4248 15.9063C18.6437 15.1252 18.6437 13.8589 19.4248 13.0778L15.1895 8.84266C16.8414 10.5037 16.4773 13.1969 14.8285 14.8456C13.1774 16.4968 10.4786 16.8596 8.81816 15.1991C7.15772 13.5387 7.52054 10.8399 9.17171 9.18878C10.8204 7.54007 13.5136 7.17588 15.1747 8.82782L10.9394 4.5926C10.1584 5.37364 8.89209 5.37362 8.11104 4.59258C8.11105 4.59258 8.11104 4.59257 8.11104 4.59258ZM10.5859 10.603C11.6684 9.52049 13.0852 9.56673 13.7679 10.2494C14.4506 10.9321 14.4968 12.3489 13.4143 13.4314C12.3318 14.5139 10.9151 14.4676 10.2323 13.7849C9.54966 13.1022 9.50342 11.6855 10.5859 10.603Z" fill="white"/>
</g>
<defs>
<clipPath id="clip0_219_5">
<rect width="24" height="24" fill="white"/>
</clipPath>
</defs>
</svg>
