<svg width="20" height="20" viewBox="0 0 20 20" fill="none" xmlns="http://www.w3.org/2000/svg">
<g clip-path="url(#clip0_32_405)">
<path d="M6.64574 8.69556H4.6582V10.6833H6.64574V8.69556Z" fill="#643DFF" stroke="#643DFF"/>
<path d="M15.3415 8.69556H13.354V10.6833H15.3415V8.69556Z" fill="#643DFF" stroke="#643DFF"/>
<path d="M12.4431 8.69556H10.4556V10.6833H12.4431V8.69556Z" fill="#643DFF" stroke="#643DFF"/>
<path d="M6.64574 11.8011H4.6582V13.7888H6.64574V11.8011Z" fill="#643DFF" stroke="#643DFF"/>
<path d="M12.4431 11.8011H10.4556V13.7888H12.4431V11.8011Z" fill="#643DFF" stroke="#643DFF"/>
<path d="M9.54467 11.8011H7.55713V13.7888H9.54467V11.8011Z" fill="#643DFF" stroke="#643DFF"/>
<path d="M15.3415 14.9067H13.354V16.8944H15.3415V14.9067Z" fill="#643DFF" stroke="#643DFF"/>
<path d="M12.4431 14.9067H10.4556V16.8944H12.4431V14.9067Z" fill="#643DFF" stroke="#643DFF"/>
<path d="M9.54467 14.9067H7.55713V16.8944H9.54467V14.9067Z" fill="#643DFF" stroke="#643DFF"/>
<path d="M17.1591 2.15027H15.5429V3.69988C15.5429 4.27808 15.0665 4.74832 14.4811 4.74832H12.3707C11.7852 4.74832 11.3089 4.27808 11.3089 3.69988V2.15027H8.68805V3.68531C8.68805 4.27156 8.20645 4.74832 7.61445 4.74832H5.52758C4.93559 4.74832 4.45398 4.27156 4.45398 3.68531V2.15027H2.83773C1.78672 2.15027 0.931641 2.99761 0.931641 4.0391V18.1112C0.931641 19.1527 1.78672 20 2.83773 20H17.1591C18.2118 20 19.0681 19.1527 19.0681 18.1112V4.0391C19.0681 2.99765 18.2118 2.15027 17.1591 2.15027ZM17.7017 18.0745C17.7017 18.4089 17.4771 18.6335 17.1427 18.6335H2.85707C2.5227 18.6335 2.29805 18.4089 2.29805 18.0745V6.95664H17.7017V18.0745Z" fill="#643DFF" stroke="#643DFF"/>
<path d="M5.5284 4.00418H7.61402C7.79063 4.00418 7.9343 3.86148 7.9343 3.68605V0.800508C7.9343 0.359102 7.57219 0 7.12703 0H6.01535C5.57023 0 5.20801 0.359063 5.20801 0.800508V3.68605C5.20805 3.86148 5.35172 4.00418 5.5284 4.00418Z" fill="#643DFF" stroke="#643DFF"/>
<path d="M12.3709 4.00418H14.4812C14.6511 4.00418 14.7892 3.86695 14.7892 3.69848V0.788203C14.7892 0.353633 14.4326 0 13.9942 0H12.8579C12.4196 0 12.063 0.353633 12.063 0.788203V3.69848C12.0629 3.86695 12.2011 4.00418 12.3709 4.00418Z" fill="#643DFF" stroke="#643DFF"/>
</g>
<defs>
<clipPath id="clip0_32_405">
<rect width="20" height="20" fill="white"/>
</clipPath>
</defs>
</svg>
