<svg width="21" height="21" viewBox="0 0 21 21" fill="none" xmlns="http://www.w3.org/2000/svg">
<path fill-rule="evenodd" clip-rule="evenodd" d="M12.2273 2.72727C12.2273 3.36661 11.8799 3.92482 11.3636 4.22347V4.45455H17.4091C18.84 4.45455 20 5.61454 20 7.04545V17.4091C20 18.84 18.84 20 17.4091 20H3.59091C2.15999 20 1 18.84 1 17.4091V7.04545C1 5.61454 2.15999 4.45455 3.59091 4.45455H9.63636V4.22347C9.12008 3.92482 8.77273 3.36661 8.77273 2.72727C8.77273 1.77333 9.54603 1 10.5 1C11.454 1 12.2273 1.77333 12.2273 2.72727ZM3.59091 6.18182H9.63636H11.3636H17.4091C17.8861 6.18182 18.2727 6.56849 18.2727 7.04545V17.4091C18.2727 17.8861 17.8861 18.2727 17.4091 18.2727H3.59091C3.11394 18.2727 2.72727 17.8861 2.72727 17.4091V7.04545C2.72727 6.56849 3.11394 6.18182 3.59091 6.18182ZM13.0909 10.9318C13.0909 10.2164 13.6709 9.63636 14.3864 9.63636C15.1018 9.63636 15.6818 10.2164 15.6818 10.9318C15.6818 11.6473 15.1018 12.2273 14.3864 12.2273C13.6709 12.2273 13.0909 11.6473 13.0909 10.9318ZM14.3864 7.90909C12.717 7.90909 11.3636 9.26241 11.3636 10.9318C11.3636 12.6012 12.717 13.9545 14.3864 13.9545C16.0558 13.9545 17.4091 12.6012 17.4091 10.9318C17.4091 9.26241 16.0558 7.90909 14.3864 7.90909ZM6.61364 9.63636C5.89817 9.63636 5.31818 10.2164 5.31818 10.9318C5.31818 11.6473 5.89817 12.2273 6.61364 12.2273C7.3291 12.2273 7.90909 11.6473 7.90909 10.9318C7.90909 10.2164 7.3291 9.63636 6.61364 9.63636ZM3.59091 10.9318C3.59091 9.26241 4.94423 7.90909 6.61364 7.90909C8.28305 7.90909 9.63636 9.26241 9.63636 10.9318C9.63636 12.6012 8.28305 13.9545 6.61364 13.9545C4.94423 13.9545 3.59091 12.6012 3.59091 10.9318ZM9.54516 15.2956C9.33185 14.869 8.81315 14.6961 8.3865 14.9094C7.95988 15.1227 7.78696 15.6414 8.00027 16.068C8.49681 17.0611 9.62099 17.4091 10.5 17.4091C11.379 17.4091 12.5032 17.0611 12.9997 16.068C13.213 15.6414 13.0401 15.1227 12.6135 14.9094C12.1869 14.6961 11.6682 14.869 11.4548 15.2956C11.3756 15.454 11.0603 15.6818 10.5 15.6818C9.93967 15.6818 9.62436 15.454 9.54516 15.2956Z" fill="#643DFF" stroke="#643DFF"/>
</svg>
