<svg width="21" height="21" viewBox="0 0 21 21" fill="none" xmlns="http://www.w3.org/2000/svg">
<g clip-path="url(#clip0_32_392)">
<path d="M2.625 4.96598V2.625C2.625 2.14175 2.23325 1.75 1.75 1.75C1.26676 1.75 0.875 2.14175 0.875 2.625V6.125C0.875 7.0915 1.6585 7.875 2.625 7.875H6.125C6.60825 7.875 7 7.48325 7 7C7 6.51675 6.60825 6.125 6.125 6.125H3.95663C3.97441 6.10317 3.99137 6.0805 4.00746 6.057C4.91838 4.72582 6.22133 3.70047 7.74542 3.13078C9.54397 2.45847 11.5264 2.46715 13.319 3.15516C15.1116 3.84317 16.5907 5.16303 17.4777 6.86604C18.3646 8.56904 18.598 10.5376 18.1341 12.4008C17.6702 14.2641 16.5409 15.8933 14.9589 16.9816C13.377 18.0699 11.4517 18.542 9.54573 18.3091C7.63979 18.0763 5.88482 17.1544 4.6115 15.7172C3.53249 14.4993 2.86247 12.9827 2.68211 11.3798C2.62808 10.8995 2.23715 10.5069 1.7539 10.5073C1.27065 10.5077 0.871209 10.9007 0.915478 11.3818C1.10245 13.4145 1.93218 15.3436 3.29583 16.8828C4.85365 18.6411 7.00074 19.769 9.33249 20.0539C11.6643 20.3388 14.0198 19.7612 15.9552 18.4298C17.8906 17.0984 19.2722 15.1051 19.8398 12.8256C20.4075 10.546 20.1218 8.13761 19.0367 6.0541C17.9516 3.97059 16.142 2.35584 13.9488 1.51411C11.7557 0.672366 9.33039 0.661754 7.12996 1.48427C5.30304 2.16716 3.73584 3.38521 2.625 4.96598Z" fill="#643DFF" stroke="#643DFF"/>
<path d="M10.5 4.375C10.0167 4.375 9.625 4.76675 9.625 5.25V10.9084C9.625 10.9084 9.625 11.1365 9.73586 11.3081C9.81006 11.4536 9.92574 11.5801 10.0777 11.6678L14.12 14.0017C14.5386 14.2433 15.0737 14.0998 15.3153 13.6813C15.5569 13.2628 15.4136 12.7278 14.995 12.4861L11.375 10.3961V5.25C11.375 4.76676 10.9833 4.375 10.5 4.375Z" fill="#643DFF" stroke="#643DFF"/>
</g>
<defs>
<clipPath id="clip0_32_392">
<rect width="21" height="21" fill="white"/>
</clipPath>
</defs>
</svg>
